HIERARCHY
ROOT hips
{
  OFFSET 0 11.86390953 0.3628582958
  CHANNELS 6 Xposition Yposition Zposition Yrotation Xrotation Zrotation
  JOINT spine
  {
    OFFSET 0 0.05383551117999996 0
    CHANNELS 3 Yrotation Xrotation Zrotation
    JOINT chest
    {
      OFFSET 0 0.6394558760401424 0
      CHANNELS 3 Yrotation Xrotation Zrotation
      JOINT neck
      {
        OFFSET 0 2.720089088562982 0
        CHANNELS 3 Yrotation Xrotation Zrotation
        JOINT head
        {
          OFFSET 0 0.37880844870545777 0
          CHANNELS 3 Yrotation Xrotation Zrotation
          JOINT rightEye
          {
            OFFSET -0.42867780714 0.7547055649100001 0.7381831347
            CHANNELS 3 Yrotation Xrotation Zrotation
            End Site
            {
              OFFSET -0.42867780714 0.7547055649100001 0.7381831347
            }
          }
          JOINT leftEye
          {
            OFFSET 0.428676479 0.7547055559999993 0.7381844503
            CHANNELS 3 Yrotation Xrotation Zrotation
            End Site
            {
              OFFSET 0.428676479 0.7547055559999993 0.7381844503
            }
          }
          JOINT jaw
          {
            OFFSET -0.18933892286100001 1.5626303011000007 1.137441874206
            CHANNELS 3 Yrotation Xrotation Zrotation
            End Site
            {
              OFFSET -0.18933892286100001 1.5626303011000007 1.137441874206
            }
          }
        }
      }
      JOINT rightShoulder
      {
        OFFSET -0.6795351508 2.0665205 0
        CHANNELS 3 Yrotation Xrotation Zrotation
        JOINT rightUpperArm
        {
          OFFSET -0.7287400483531672 0 0
          CHANNELS 3 Yrotation Xrotation Zrotation
          JOINT rightLowerArm
          {
            OFFSET -1.9872982039174532 0 0
            CHANNELS 3 Yrotation Xrotation Zrotation
            JOINT rightHand
            {
              OFFSET -2.6451847532219275 0 0
              CHANNELS 3 Yrotation Xrotation Zrotation
              JOINT rightLittleProximal
              {
                OFFSET -0.8008804099999995 -0.09592044000000044 -0.26183688629999996
                CHANNELS 3 Yrotation Xrotation Zrotation
                JOINT rightLittleIntermediate
                {
                  OFFSET -0.2473955153999997 -0.02541697026000067 0.002370178700999967
                  CHANNELS 3 Yrotation Xrotation Zrotation
                  JOINT rightLittleDistal
                  {
                    OFFSET -0.163687229200001 -0.015790700860001117 -0.0004274845300000635
                    CHANNELS 3 Yrotation Xrotation Zrotation
                    End Site
                    {
                      OFFSET -0.163687229200001 -0.015790700860001117 -0.0004274845300000635
                    }
                  }
                }
              }
              JOINT rightRingProximal
              {
                OFFSET -0.8393382799999985 -0.06223833561000025 -0.09213143500000005
                CHANNELS 3 Yrotation Xrotation Zrotation
                JOINT rightRingIntermediate
                {
                  OFFSET -0.3284497260000011 -0.03264224524000103 0.009408593183000052
                  CHANNELS 3 Yrotation Xrotation Zrotation
                  JOINT rightRingDistal
                  {
                    OFFSET -0.19447660429999902 -0.021730899850000318 0.003074347969000052
                    CHANNELS 3 Yrotation Xrotation Zrotation
                    End Site
                    {
                      OFFSET -0.19447660429999902 -0.021730899850000318 0.003074347969000052
                    }
                  }
                }
              }
              JOINT rightMiddleProximal
              {
                OFFSET -0.8473005199999989 -0.06735503500000095 0.10541820299999995
                CHANNELS 3 Yrotation Xrotation Zrotation
                JOINT rightMiddleIntermediate
                {
                  OFFSET -0.3450455799999995 -0.02481901642000084 0.019012570390000032
                  CHANNELS 3 Yrotation Xrotation Zrotation
                  JOINT rightMiddleDistal
                  {
                    OFFSET -0.23542332000000088 -0.025003910029999243 0.0075583457949999905
                    CHANNELS 3 Yrotation Xrotation Zrotation
                    End Site
                    {
                      OFFSET -0.23542332000000088 -0.025003910029999243 0.0075583457949999905
                    }
                  }
                }
              }
              JOINT rightIndexProximal
              {
                OFFSET -0.8008568281999987 -0.09897839600000169 0.29462796
                CHANNELS 3 Yrotation Xrotation Zrotation
                JOINT rightIndexIntermediate
                {
                  OFFSET -0.30524754480000016 -0.024634122809999992 0.02743375304999998
                  CHANNELS 3 Yrotation Xrotation Zrotation
                  JOINT rightIndexDistal
                  {
                    OFFSET -0.23067378950000017 -0.016876459159999913 0.008484125099999983
                    CHANNELS 3 Yrotation Xrotation Zrotation
                    End Site
                    {
                      OFFSET -0.23067378950000017 -0.016876459159999913 0.008484125099999983
                    }
                  }
                }
              }
              JOINT rightThumbProximal
              {
                OFFSET -0.25574064999999935 -0.12833189930000155 0.22385698609999993
                CHANNELS 3 Yrotation Xrotation Zrotation
                JOINT rightThumbIntermediate
                {
                  OFFSET -0.22791743260000086 -0.07103586192999978 0.27385039
                  CHANNELS 3 Yrotation Xrotation Zrotation
                  JOINT rightThumbDistal
                  {
                    OFFSET -0.13610267659999975 -0.03369390969999997 0.14246511509999996
                    CHANNELS 3 Yrotation Xrotation Zrotation
                    End Site
                    {
                      OFFSET -0.13610267659999975 -0.03369390969999997 0.14246511509999996
                    }
                  }
                }
              }
            }
          }
        }
      }
      JOINT leftShoulder
      {
        OFFSET 0.6795338396 2.0665205 0
        CHANNELS 3 Yrotation Xrotation Zrotation
        JOINT leftUpperArm
        {
          OFFSET 0.7287383950230443 0 0
          CHANNELS 3 Yrotation Xrotation Zrotation
          JOINT leftLowerArm
          {
            OFFSET 1.9872997282019604 0 0
            CHANNELS 3 Yrotation Xrotation Zrotation
            JOINT leftHand
            {
              OFFSET 2.6451820781302327 0 0
              CHANNELS 3 Yrotation Xrotation Zrotation
              JOINT leftLittleProximal
              {
                OFFSET 0.8008804099999995 -0.09592306899999814 -0.2618342639000001
                CHANNELS 3 Yrotation Xrotation Zrotation
                JOINT leftLittleIntermediate
                {
                  OFFSET 0.2473981400000007 -0.02542352681000093 0.0023609995859999455
                  CHANNELS 3 Yrotation Xrotation Zrotation
                  JOINT leftLittleDistal
                  {
                    OFFSET 0.1636846068000002 -0.015794634789999318 -0.00043272972159996703
                    CHANNELS 3 Yrotation Xrotation Zrotation
                    End Site
                    {
                      OFFSET 0.1636846068000002 -0.015794634789999318 -0.00043272972159996703
                    }
                  }
                }
              }
              JOINT leftRingProximal
              {
                OFFSET 0.8393409199999996 -0.062242267999998324 -0.0921281570000001
                CHANNELS 3 Yrotation Xrotation Zrotation
                JOINT leftRingIntermediate
                {
                  OFFSET 0.3284471036000003 -0.03264224524000103 0.009405970574000042
                  CHANNELS 3 Yrotation Xrotation Zrotation
                  JOINT leftRingDistal
                  {
                    OFFSET 0.1944779099999996 -0.021732211159998904 0.003073036670000001
                    CHANNELS 3 Yrotation Xrotation Zrotation
                    End Site
                    {
                      OFFSET 0.1944779099999996 -0.021732211159998904 0.003073036670000001
                    }
                  }
                }
              }
              JOINT leftMiddleProximal
              {
                OFFSET 0.8473005200000001 -0.06736028199999788 0.1054214809999999
                CHANNELS 3 Yrotation Xrotation Zrotation
                JOINT leftMiddleIntermediate
                {
                  OFFSET 0.3450455799999995 -0.024824261000000014 0.019013225990000007
                  CHANNELS 3 Yrotation Xrotation Zrotation
                  JOINT leftMiddleDistal
                  {
                    OFFSET 0.2354259489999998 -0.025005222000000327 0.0075590014499999705
                    CHANNELS 3 Yrotation Xrotation Zrotation
                    End Site
                    {
                      OFFSET 0.2354259489999998 -0.025005222000000327 0.0075590014499999705
                    }
                  }
                }
              }
              JOINT leftIndexProximal
              {
                OFFSET 0.8008594516999996 -0.09898495199999946 0.29463124239999994
                CHANNELS 3 Yrotation Xrotation Zrotation
                JOINT leftIndexIntermediate
                {
                  OFFSET 0.30524754480000016 -0.024632811499998963 0.02743047472
                  CHANNELS 3 Yrotation Xrotation Zrotation
                  JOINT leftIndexDistal
                  {
                    OFFSET 0.23067378950000017 -0.016876459159999913 0.008481502700000004
                    CHANNELS 3 Yrotation Xrotation Zrotation
                    End Site
                    {
                      OFFSET 0.23067378950000017 -0.016876459159999913 0.008481502700000004
                    }
                  }
                }
              }
              JOINT leftThumbProximal
              {
                OFFSET 0.25574326469999953 -0.12833321050000013 0.22385764169999997
                CHANNELS 3 Yrotation Xrotation Zrotation
                JOINT leftThumbIntermediate
                {
                  OFFSET 0.22804987480000094 -0.07138466829999968 0.273648441
                  CHANNELS 3 Yrotation Xrotation Zrotation
                  JOINT leftThumbDistal
                  {
                    OFFSET 0.13614857189999907 -0.033867001519998885 0.14238119169999996
                    CHANNELS 3 Yrotation Xrotation Zrotation
                    End Site
                    {
                      OFFSET 0.13614857189999907 -0.033867001519998885 0.14238119169999996
                    }
                  }
                }
              }
            }
          }
        }
      }
    }
  }
  JOINT rightUpperLeg
  {
    OFFSET -0.9749898906000001 -1.8495733739999998 0
    CHANNELS 3 Yrotation Xrotation Zrotation
    JOINT rightLowerLeg
    {
      OFFSET 0 -4.1566544686813165 0
      CHANNELS 3 Yrotation Xrotation Zrotation
      JOINT rightFoot
      {
        OFFSET 0.14539718599999998 -4.225553926 -0.3666210900000001
        CHANNELS 3 Yrotation Xrotation Zrotation
        JOINT rightToes
        {
          OFFSET 0.1706738473 -0.9584117400000015 1.0093348617
          CHANNELS 3 Yrotation Xrotation Zrotation
          End Site
          {
            OFFSET 0.1706738473 -0.9584117400000015 1.0093348617
          }
        }
      }
    }
  }
  JOINT leftUpperLeg
  {
    OFFSET 0.9749898906000001 -1.8495733739999998 0
    CHANNELS 3 Yrotation Xrotation Zrotation
    JOINT leftLowerLeg
    {
      OFFSET 0 -4.156653488267941 0
      CHANNELS 3 Yrotation Xrotation Zrotation
      JOINT leftFoot
      {
        OFFSET -0.14537357999999995 -4.225555399999999 -0.36661124279999996
        CHANNELS 3 Yrotation Xrotation Zrotation
        JOINT leftToes
        {
          OFFSET -0.17066467000000002 -0.9584157000000019 1.0093348617
          CHANNELS 3 Yrotation Xrotation Zrotation
          End Site
          {
            OFFSET -0.17066467000000002 -0.9584157000000019 1.0093348617
          }
        }
      }
    }
  }
}
MOTION
Frames: 4
Frame Time: 0.03333333333333333
-0.07738253474235535 -1.788132476166993 0.2310885190963745 1.886925831750264 -12.685340165658362 -7.851196624364053 -2.3779926399336873 7.4795255817296855 -3.8654127792893305 -0.5444011466030525 5.115045791881813 1.4406918581410983 -0.04754478476610409 8.91800450114438 2.6628911787122007 1.0775375375229768 2.7800896130108277 3.4334581434376186 0 0 0 0 0 0 0 0 0 6.160493312922001 0.7143131773961474 4.182645721952764 -18.87468336396051 14.396380008544964 49.414792174888746 114.67981637693626 1.0492052562140524 -0.6725013905981099 4.712565781793492 18.04248528843674 -33.20194576702358 -7.5850375956939144 4.086728154993996 37.03042820719633 -3.0228803443355434 0.7470936545972984 29.801372940785484 -1.23905332765236 0.09397519419250921 10.916461763428781 -4.9820094751988 1.2443913822653492 17.526308133511808 -4.817381901420527 2.2531689765730385 50.20676693715707 -1.58531578191004 0.13229897413623515 14.444798174801887 9.543249406534144 0.08238279528772115 0.021499252708061786 -2.2655847574386225 0.44887613966441875 22.24163254686856 -1.6430362040093294 0.34361313542971367 15.254364189514218 12.49912141544971 2.789476627112544 -12.406604007778844 -1.8081420437535685 0.2737142553491966 17.13732040876275 -1.9084516796847313 0.29596501892873023 17.728856011259627 -10.378012859751724 -2.3525636271427994 23.72345178006847 -7.309941902463677 -6.763521878448136 -12.362445328189862 3.160986390988128 -10.501008898544107 -22.450371462568345 -1.4317837885476166 0.5035928096493766 -5.181613916816313 11.39339388234989 -4.287650779151176 -51.73282887130349 -122.66318921640148 1.139486204335654 0.6232555597992712 11.706252461898531 15.045318302665219 16.464812318911644 17.370869459641387 11.635589683452203 -35.68288235920912 -1.3362085502500463 0.7628539234367918 -27.216755458790832 0.8697161339424907 0.09187367428901691 -8.20126697381421 12.494536730700696 3.519385954769067 -16.033651018581697 4.167445275012534 1.6213440609766085 -42.48915707139782 1.1981495643828561 0.11768719034081959 -11.206284908572679 -6.207094226603346 0.7619299518335532 6.955297670472216 3.1571353883386366 0.8673380702872265 -30.760446032790643 1.378922281003035 0.15589320369549584 -12.901452588471642 -12.651616115806295 2.5328643824552035 11.137897773245406 2.3843244189834687 0.4775731571364143 -22.631415199136008 1.1626752842548382 0.11196798932047641 -10.941963920219697 16.90120780131262 3.566478547784472 -29.43787778753863 -0.5681617879971177 -1.3578908119441297 8.094118427108652 -1.475994283090944 -0.9907888084479403 2.8903483112250092 -10.017468508721647 -18.808441260419468 -1.519135797252857 2.90969027901897 61.96547023107221 4.561779554493153 -1.3807901095674262 -29.121120591344212 5.029684589934903 0.000011106950717188442 -0.4984428635635237 -7.223596029268941e-7 3.1768124049297533 -22.31670182077527 17.842636944532856 -14.102652267213788 65.61435129779387 -9.683645885424825 2.0317306634730463 -32.110354249350564 -7.219945736251893 4.642762379939647e-7 -1.6187266254228305 -0.000002219555783754573
-0.07407621294260025 -1.7891166680615243 0.24144276976585388 1.8573405851576035 -12.59267844160701 -7.830713680530093 -2.347582107040901 7.506769926655877 -3.819071440911431 -0.5390258408478635 5.113996166974752 1.3862508702841774 -0.04193654839624064 8.922709350806361 2.679031358403536 1.1391500017670215 2.7436090326655544 3.374003030020081 0 0 0 0 0 0 0 0 0 6.211410688661866 0.7145417396971376 4.270027236135237 -19.034148142411574 14.491236535251737 49.35730328706393 115.18529795012391 1.0551131920289971 -0.6697257212401552 4.656245399312982 16.057727785572805 -32.941242256060754 -2.9839747124294607 0.3455923786224909 46.154980332503136 -4.587764132855768 1.9450095108194165 47.94974683186431 -1.7227889600847202 0.19923034946801965 15.466573053470938 -3.667503261456445 1.1148710954370114 30.58295314320265 -5.422895657796244 3.121172588656182 59.91559509341237 -1.9482357911377075 0.30767212561611856 18.075645378951542 9.07337244569134 -0.9626227787001024 6.303328469867296 -2.6331765965894496 0.6103595961639193 25.929340311776233 -1.7821746524428153 0.37694962710451946 16.594798043593677 11.988692062062757 3.7329926904803745 -17.85983691496052 -1.7275718434292824 0.24960735803701922 16.364854636975757 -1.6848006516796261 0.22907664400928862 15.583892828030343 -4.750429120791724 -6.216129245467915 28.949606308571326 -4.622135146157157 -1.399674640010345 -7.992196003543117 4.149450648533438 -8.464887236368702 -18.150642921969567 -1.4485173750866085 0.5036582325823824 -5.145244677720041 11.147662091244325 -4.666318681682197 -51.76995002904391 -122.83148223607886 1.1413267712789004 0.6220669346375152 10.223817953335782 13.096387820748314 16.359746717574435 15.338537219370068 11.382627930460442 -40.133222801369946 -0.1130532337232453 1.658248172508688 -41.30577583719349 1.2654898587142493 0.1757025428722542 -11.959075926204054 11.404129066877799 5.398189652340569 -28.091445442741495 4.866236113215342 2.3773832635166334 -52.0416212664166 1.3332686456148406 0.14605901781846906 -12.48932980135867 -3.0901796631829055 0.08944137684763738 1.5194732691125383 4.063871584956988 1.5247929271154161 -41.16432143424089 1.4498703125418344 0.17260235637948157 -13.578597407981256 -11.100064392363823 2.2900235439754133 11.758734896130575 2.246221755120106 0.42176534892136885 -21.24812040133071 1.1393870359863554 0.10751497128678514 -10.721719691767008 21.043342819958 -13.619887805649554 -27.41281964333243 -1.4263031638792545 0.7552106445908586 5.389768746590069 -3.0646532450755033 2.8620301701898136 -4.963801486900274 -9.999442357578456 -18.86005071208459 -1.535734869996121 2.950873891726299 61.983451869622996 4.5694246225207245 -1.3972093934894707 -29.18504892098898 5.072977248936735 -0.0000029644277233297125 -0.48838135501650154 3.1625695797185974e-7 3.1845793960627105 -22.34603465638116 17.81432474333549 -14.011206513333153 65.63983993698776 -9.631588147113963 2.0363509579437267 -32.1856562253968 -7.221810989236918 0.0000020445578534408995 -1.5775038455265897 0.0000028965698224550946
-0.07145753502845764 -1.7894437783520516 0.2488667219877243 1.8477351087971479 -12.547685259701222 -7.812967191964459 -2.345919508203638 7.544097400372838 -3.8093348489291636 -0.5397728630570573 5.097455694078339 1.357825240030797 -0.03756671977220847 8.937409372173 2.6920649111448727 1.1790761960409606 2.7417089173161453 3.3508186132718505 0 0 0 0 0 0 0 0 0 6.239139001806719 0.7146038565607306 4.319791689919494 -19.122462562902463 14.514034730621708 49.34213194714597 115.52128495483507 1.059029371167646 -0.6678776707911472 4.5433710034036014 14.264143049707009 -32.5916673676737 -2.4679024069596993 -0.3489300011905055 48.63692988768334 -5.299982349212276 2.8490512091055327 58.50784068773191 -2.0976570813468878 0.30919736097407796 19.056224548736633 -3.3501856484084063 0.9274552201866443 37.87304098600489 -5.600621675999678 3.4506662670170885 63.34597480804474 -2.294911509431569 0.44312531967661495 21.492810176777304 7.715866279216732 -2.003752637992789 13.675536427218205 -3.239356386886086 0.9427226195326365 32.278761483285706 -1.8302907193597215 0.37227693078392804 17.01346135745781 11.983179733406791 3.63465803674406 -17.446153002842216 -1.715515406925212 0.24611339009814442 16.249516046717954 -1.6226547554232655 0.21209011774062772 14.991888339224495 -0.8855301795173582 -12.467196315743383 32.78151379469526 -2.0972653238640886 3.752225685581798 -3.4592106670054386 5.73143832100888 -5.4180227328460875 -9.907841408391056 -1.3998839831803207 0.5009520396536477 -5.099635850660318 10.834813570564883 -4.685360162165219 -51.7490030707076 -123.13067608816849 1.1445271381799553 0.6199693628881198 10.687271652719915 12.07624584125338 15.969155005928453 17.860539022805643 12.124202274864405 -36.340953787981896 0.749140063140794 2.663465737886589 -53.595104323902646 1.8066338135153863 0.33555753286107265 -17.199854510601952 9.57576120855933 5.924344326592824 -38.15543586796724 5.170719077040404 2.803454820089803 -56.89505672014452 1.1839324510894238 0.11487297318419362 -11.071687681311486 -1.1523089575853618 -0.17535702972838452 -6.861459652079973 4.945291199241271 2.475128732008772 -53.19976835617066 1.4416488046050964 0.17063379898441003 -13.500057273408814 -10.187568389771856 1.5393703470161268 8.424818381502392 2.1422780988443013 0.3822934069299776 -20.215444058194837 1.1326778550400067 0.10624774887734184 -10.658428916891838 25.391627728971518 -32.08421537287188 -29.630002348010407 -1.626324519308223 1.5342744735446234 4.469088686622392 -3.863748006640982 4.458291031584788 -8.318966329193369 -9.987262808079105 -18.869361804134595 -1.5559284149333126 2.9616926371289503 61.99004682541528 4.553630612913945 -1.410907255828011 -29.229896425238458 5.112777680344401 0.000004365901759738666 -0.4580052401891088 -0.000003611082453028379 3.2025650610400573 -22.34442294393067 17.78870057585952 -13.976090539261582 65.64822852533099 -9.619435768082377 2.0363301313645357 -32.236501811895344 -7.211541429704719 0.000006318815444204605 -1.545516008834452 -0.0000024849584742441753
-0.06903693079948425 -1.789562033967286 0.2566165328025818 1.818588335354411 -12.509330575261407 -7.787474451020474 -2.355689522723955 7.580481524197289 -3.8350256695960288 -0.5416754001297166 5.078647225644887 1.3668185858545128 -0.029920522587070748 8.95372969209989 2.68127590055507 1.2168712798793946 2.779024771708488 3.3265850175108267 0 0 0 0 0 0 0 0 0 6.320691295186588 0.7183933603863725 4.32051672485587 -19.158685182913583 14.560255643235624 49.34696560608717 115.79682258851605 1.0622395764870918 -0.6663407023925635 4.179615469143597 12.467463005445115 -32.12147813715937 -2.9268690279440026 0.15170940426969873 48.354730871532674 -5.705344422301537 3.575717242175033 66.13445857223853 -2.5225597794641192 0.4656942552891046 23.21607738062858 -3.601106702132404 1.0588222956935547 43.26863823088471 -5.713428816070131 3.688010393023259 65.7538434405206 -2.598569379953639 0.5701148924636587 24.516319079290284 7.072895748607264 -2.9021386819607953 19.919187030124494 -3.992162882642548 1.4934868880778795 40.84390668391764 -1.8881670767626026 0.371180022006065 17.526096721254728 11.746859618524109 3.171464590227535 -15.512917654023727 -1.7185865543506265 0.24701455652604157 16.278943643905908 -1.611513453458539 0.20911365593939146 14.885874904419541 1.6441714875305131 -21.125910652874058 35.77131938441288 -0.4890327906355562 6.911554462907672 -0.4246392935113764 6.707767664075096 -3.890603952008776 -5.0793098378204355 -1.3544485025372506 0.4999261381249845 -5.144529447914456 10.356844877637496 -4.600315027866034 -51.57856698155384 -123.19908717329191 1.1452969688135157 0.6195025003523289 11.489561969346807 11.983754718045082 15.917202653156611 20.12853531560672 11.182062952077747 -29.77287235105719 0.8117189162523526 2.75639557128508 -54.63216954316943 1.9295711348692206 0.3795221565160513 -18.411894132479514 7.6721755342426485 5.168097601498861 -45.210861541151324 5.21335071767821 2.869698751057469 -57.624690946440886 0.7917636149813683 0.05114705463453251 -7.378903361021148 0.8721367466246924 -0.12303474667415686 -21.50535321483709 5.235131452193381 2.897371936639657 -57.94587752315186 1.375258313739421 0.15505376768797965 -12.866262431068979 -8.6648146157691 -0.3300504398565195 -2.792011338118419 2.2411594517098483 0.41978293977819936 -21.197706047786106 1.1348211828129458 0.10665282515097481 -10.67860507139457 27.485582587425366 -44.585116882291146 -33.44264200908872 -1.6988059844373853 1.9063766327039093 4.049636001009141 -4.362327361856409 5.347647875877799 -10.294894410173859 -9.95767257034301 -18.874688847489125 -1.5695090495014825 2.9432816713174654 61.99742876060478 4.496400455358433 -1.42767050885807 -29.27461284919374 5.164314792606629 0.0000036745459195423115 -0.44551646471324663 -0.000004025208955166652 3.230406193316403 -22.326492284131064 17.76245199701878 -13.932419777514585 65.6493715045385 -9.605664055993326 2.0367512239016095 -32.289525024249684 -7.203003024037285 0.00000626593991467248 -1.5060822298207042 -9.773005167382444e-7
